<?xml version="1.0" encoding="UTF-8"?>
<svg version="1.1" xmlns="http://www.w3.org/2000/svg" width="512" height="512">
<path d="M0 0 C1.10357849 -0.0099852 2.20715698 -0.0199704 3.34417725 -0.03025818 C5.67749285 -0.04543031 8.0108734 -0.05248425 10.34423828 -0.05200195 C13.89596278 -0.05854601 17.44486576 -0.11299379 20.99609375 -0.16992188 C23.26821966 -0.17872802 25.54035878 -0.1846795 27.8125 -0.1875 C28.8659259 -0.20905655 29.91935181 -0.2306131 31.00469971 -0.25282288 C38.33775803 -0.18542534 43.20960361 1.5077086 48.671875 6.50390625 C52.10942321 10.98027887 52.85823014 14.65479607 52.76171875 20.2734375 C52.74226196 21.74647339 52.74226196 21.74647339 52.72241211 23.24926758 C52.70573486 23.99329834 52.68905762 24.7373291 52.671875 25.50390625 C53.97334473 25.48295898 55.27481445 25.46201172 56.61572266 25.44042969 C61.45740703 25.36787432 66.2990436 25.32204978 71.14111328 25.28417969 C73.23429453 25.26409966 75.32741992 25.23682985 77.42041016 25.20214844 C80.43405969 25.15347191 83.44696573 25.13090113 86.4609375 25.11328125 C87.39241608 25.09263611 88.32389465 25.07199097 89.28359985 25.05072021 C95.05958807 25.04873822 98.26000715 25.68117604 102.671875 29.50390625 C104.1501976 32.46055144 103.73220283 35.24620362 103.671875 38.50390625 C104.5413829 38.4950238 105.41089081 38.48614136 106.30674744 38.47698975 C114.53021379 38.39659943 122.75354678 38.33581815 130.97731686 38.29665756 C135.20453187 38.2758473 139.43142021 38.24765103 143.65844727 38.20214844 C147.74334962 38.1584546 151.82793919 38.13471988 155.91305733 38.12439728 C157.46588624 38.11704786 159.01869944 38.1026967 160.57139397 38.08098602 C170.23286263 37.95135572 177.96912937 38.35733358 185.9765625 44.1796875 C192.86790419 51.36245409 194.79316289 58.48591596 194.80330276 68.38501263 C194.8053554 69.06820048 194.80740803 69.75138833 194.80952287 70.45527884 C194.81518667 72.74931271 194.81373639 75.04328642 194.81231689 77.33732605 C194.81490089 78.99680965 194.81791414 80.65629262 194.8213203 82.31577474 C194.82938955 86.88000922 194.83117983 91.44422798 194.83191776 96.00846875 C194.83376844 100.92954946 194.84131585 105.85062201 194.84805298 110.771698 C194.86163624 121.5341257 194.86766099 132.29654967 194.87206364 143.05898452 C194.87482604 149.77874248 194.87906339 156.49849901 194.88356781 163.218256 C194.89576041 181.82232542 194.90605978 200.4263937 194.9094429 219.03046703 C194.90966247 220.22122314 194.90988203 221.41197925 194.91010825 222.63881888 C194.91032653 223.83242782 194.91054481 225.02603677 194.9107697 226.25581568 C194.91121317 228.67453142 194.91165973 231.09324716 194.91210938 233.51196289 C194.9123308 234.71173003 194.91255223 235.91149717 194.91278037 237.14762089 C194.91672849 256.588643 194.93418296 276.02962763 194.9574689 295.47063526 C194.98118176 315.42912235 194.99364472 335.38759064 194.99481082 355.34609205 C194.99572761 366.55257382 195.00148097 377.75900676 195.01963043 388.96547508 C195.0350305 398.50796278 195.04015241 408.05038656 195.03189233 417.59288432 C195.02798553 422.46092166 195.02891696 427.32883024 195.04294968 432.19685173 C195.05568657 436.65615319 195.0544929 441.11522914 195.04235896 445.57453028 C195.04040161 447.18491364 195.04348218 448.79531295 195.05220333 450.40567388 C195.16029982 471.72083489 195.16029982 471.72083489 188.296875 478.94140625 C187.73226563 479.55886719 187.16765625 480.17632812 186.5859375 480.8125 C184.671875 482.50390625 184.671875 482.50390625 179.671875 485.50390625 C188.911875 485.83390625 198.151875 486.16390625 207.671875 486.50390625 C206.671875 490.50390625 206.671875 490.50390625 203.734375 492.94140625 C170.89996567 511.6793676 117.63025345 509.62776568 80.671875 511.50390625 C79.49902624 511.56470068 79.49902624 511.56470068 78.30248356 511.62672329 C63.03390049 512.40405522 47.80239424 512.66683287 32.515625 512.671875 C30.15327944 512.67510546 27.79093406 512.67847071 25.42858887 512.68196106 C20.50398294 512.68789735 15.5793944 512.68980691 10.65478516 512.68920898 C5.6947868 512.68912813 0.7348816 512.69601452 -4.22509766 512.7097168 C-33.65347655 512.78974657 -62.96246844 512.5403209 -92.328125 510.50390625 C-93.13326349 510.44808002 -93.93840199 510.3922538 -94.76793861 510.33473587 C-186.97430234 503.8912113 -186.97430234 503.8912113 -202.328125 489.50390625 C-202.328125 488.51390625 -202.328125 487.52390625 -202.328125 486.50390625 C-193.748125 486.17390625 -185.168125 485.84390625 -176.328125 485.50390625 C-178.968125 483.52390625 -181.608125 481.54390625 -184.328125 479.50390625 C-186.16796875 477.2734375 -186.16796875 477.2734375 -187.265625 475.31640625 C-187.64589844 474.66285156 -188.02617187 474.00929688 -188.41796875 473.3359375 C-190.39599036 469.35442619 -190.45604115 466.11534087 -190.46234608 461.72275257 C-190.46469831 461.02607785 -190.46705054 460.32940313 -190.46947405 459.61161706 C-190.4761706 457.25968337 -190.47570563 454.90780485 -190.47529602 452.55586243 C-190.47859424 450.85955619 -190.48231971 449.16325075 -190.4864375 447.4669463 C-190.49647041 442.79171967 -190.50017637 438.11650587 -190.50282681 433.44126999 C-190.50672603 428.40430728 -190.51630461 423.36735477 -190.52503967 418.33039856 C-190.54481467 406.15946374 -190.5548715 393.98852808 -190.56376746 381.81758121 C-190.56814857 376.08898554 -190.57351583 370.36039081 -190.57875633 364.63179588 C-190.59576946 345.59373955 -190.61026434 326.55568381 -190.61750507 307.51762104 C-190.61941503 302.57563082 -190.62133536 297.6336406 -190.62329102 292.69165039 C-190.62377476 291.46331209 -190.6242585 290.23497379 -190.6247569 288.96941312 C-190.63305982 269.06454466 -190.65840081 249.15973623 -190.69087169 229.254894 C-190.72392205 208.82865502 -190.74195199 188.40244659 -190.74514931 167.97618073 C-190.74731626 156.503673 -190.75609193 145.03125284 -190.78161049 133.55877113 C-190.80328981 123.78962615 -190.81138153 114.02059 -190.80164371 104.25142369 C-190.79709102 99.2661457 -190.7990415 94.28109239 -190.81840515 89.29584503 C-190.83598038 84.73165784 -190.83508505 80.16786019 -190.81950786 75.60366919 C-190.8171232 73.95288249 -190.82149967 72.30206922 -190.83333651 70.65132324 C-190.89715384 61.16344736 -190.88401816 53.81128694 -184.43359375 46.296875 C-183.80066406 45.76707031 -183.16773438 45.23726562 -182.515625 44.69140625 C-181.89042969 44.14871094 -181.26523438 43.60601562 -180.62109375 43.046875 C-174.73277155 39.08454575 -169.85362157 38.06366057 -162.91430664 38.16333008 C-162.1037381 38.162892 -161.29316956 38.16245392 -160.45803833 38.16200256 C-157.80120039 38.1640786 -155.1450078 38.18735298 -152.48828125 38.2109375 C-150.6374089 38.21653768 -148.78653208 38.22080579 -146.93565369 38.22380066 C-142.08091807 38.23521619 -137.22645474 38.26465488 -132.37182617 38.2979126 C-127.41133303 38.32868464 -122.4507956 38.34232121 -117.49023438 38.35742188 C-107.76941209 38.38952786 -98.04879125 38.44068419 -88.328125 38.50390625 C-88.3492334 37.55233643 -88.3703418 36.6007666 -88.39208984 35.62036133 C-88.29660443 30.96818056 -86.50913059 29.76065007 -83.328125 26.50390625 C-80.71290715 25.19629732 -78.79699099 25.38393077 -75.86865234 25.39038086 C-74.15710464 25.39049416 -74.15710464 25.39049416 -72.41098022 25.39060974 C-70.55625595 25.39835167 -70.55625595 25.39835167 -68.6640625 25.40625 C-67.40171783 25.40766495 -66.13937317 25.4090799 -64.83877563 25.41053772 C-61.48174201 25.41519547 -58.124776 25.42418217 -54.76776123 25.4352417 C-51.34257594 25.44546855 -47.91738366 25.45003807 -44.4921875 25.45507812 C-37.77081457 25.46612387 -31.04947369 25.48287431 -24.328125 25.50390625 C-24.34190186 24.82626221 -24.35567871 24.14861816 -24.36987305 23.45043945 C-24.38058838 22.55671631 -24.39130371 21.66299316 -24.40234375 20.7421875 C-24.41612061 19.85829346 -24.42989746 18.97439941 -24.4440918 18.0637207 C-24.21318115 12.96667203 -22.2236548 9.54083549 -18.953125 5.75390625 C-12.64774759 0.34929704 -8.12506271 0.02555318 0 0 Z " fill="#ACE8F0" transform="translate(253.328125,-0.50390625)"/>
<path d="M0 0 C1.19095779 -0.00043808 2.38191559 -0.00087616 3.60896301 -0.00132751 C6.85653597 0.0003979 10.10371539 0.01538859 13.35121036 0.03639436 C16.75178726 0.05521525 20.15237282 0.05691584 23.55299377 0.06047058 C29.98437417 0.06977523 36.41560063 0.0943674 42.8469134 0.12451905 C50.17218664 0.15811248 57.49746744 0.17456145 64.82279861 0.18960536 C79.88399997 0.22091855 94.94500151 0.27591063 110.00610352 0.34057617 C110.00610352 8.92057617 110.00610352 17.50057617 110.00610352 26.34057617 C105.79344727 26.36635742 101.58079102 26.39213867 97.24047852 26.41870117 C93.87903909 26.45038207 90.51769386 26.48603228 87.15632629 26.52436829 C83.6093244 26.56373245 80.06257437 26.59611898 76.51538086 26.61157227 C72.44417408 26.62962989 68.37389897 26.67957342 64.30297852 26.73120117 C63.03307068 26.73242981 61.76316284 26.73365845 60.45477295 26.73492432 C59.27385071 26.75464294 58.09292847 26.77436157 56.8762207 26.79467773 C55.83697449 26.80356018 54.79772827 26.81244263 53.72698975 26.82159424 C50.20974206 27.49247418 49.20264882 28.5376822 47.00610352 31.34057617 C46.41002864 34.38980164 46.41002864 34.38980164 46.51111889 37.8526926 C46.50374643 38.83583585 46.50374643 38.83583585 46.49622503 39.83884057 C46.48459399 42.04477708 46.50159074 44.24956932 46.51835632 46.45545959 C46.51589682 48.04895022 46.51168308 49.64243895 46.50586158 51.23592085 C46.49495228 55.62223753 46.50906831 60.00817573 46.52718198 64.39445555 C46.54236889 69.12182762 46.53452809 73.84916741 46.52949524 78.57655334 C46.52326131 87.84016929 46.53827881 97.10363627 46.56022086 106.36722357 C46.58487575 117.14723181 46.58782415 127.92721253 46.58962462 138.70724481 C46.59350357 157.93637288 46.61598871 177.16543369 46.64941406 196.39453125 C46.68184845 215.06868775 46.70309345 233.74280874 46.7109375 252.41699219 C46.71142299 253.56722538 46.71190848 254.71745857 46.71240868 255.90254731 C46.71433725 260.52547451 46.71624938 265.14840171 46.71812479 269.77132893 C46.72565212 287.54681046 46.7412815 305.32228613 46.75862139 323.09776049 C46.76386157 328.47300371 46.76879446 333.8482468 46.77298331 339.22349095 C46.78189631 350.52889275 46.7936545 361.83427748 46.81454935 373.13966424 C46.82316037 377.81640555 46.83023885 382.49313502 46.83306503 387.16988373 C46.83572507 391.44622439 46.84299443 395.72253083 46.8540555 399.99885779 C46.85727062 401.55059568 46.85879331 403.10233813 46.85850521 404.65407933 C46.85838064 406.7541932 46.86432877 408.85420268 46.87188244 410.95430088 C46.87367101 412.12356981 46.87545958 413.29283874 46.87730235 414.49754006 C46.87996155 417.41709785 46.87996155 417.41709785 48.00610352 420.34057617 C51.18463538 422.45959741 51.95568745 422.59197669 55.59358788 422.60063839 C56.54047773 422.60770398 57.48736758 422.61476957 58.46295106 422.62204927 C59.50524893 422.61963419 60.54754679 422.6172191 61.62142944 422.61473083 C62.72710758 422.61996751 63.83278571 422.62520419 64.97196925 422.63059956 C68.69611126 422.64566343 72.42011666 422.64630611 76.14428711 422.64697266 C78.80653973 422.65458981 81.46878067 422.6629672 84.13102722 422.67219543 C91.37682136 422.69505917 98.62258623 422.70296739 105.86841154 422.70802188 C110.39140097 422.71127706 114.91438187 422.71779841 119.43736649 422.72502327 C131.95673283 422.74459035 144.47609124 422.76099414 156.99547386 422.7638998 C158.19751308 422.76418116 158.19751308 422.76418116 159.42383591 422.7644682 C161.0484302 422.76483445 162.6730245 422.76519815 164.29761879 422.76555931 C165.50731775 422.76583352 165.50731775 422.76583352 166.74145508 422.76611328 C167.54890362 422.76629383 168.35635217 422.76647438 169.18826886 422.7666604 C182.27625693 422.77020319 195.36408059 422.79723154 208.45201163 422.83461117 C221.88459699 422.87266864 235.31710071 422.89205709 248.7497412 422.89235932 C256.2935943 422.89294444 263.83725123 422.90147153 271.38105392 422.93035698 C277.8038304 422.95483667 284.22633916 422.96217703 290.64914964 422.94710945 C293.92689707 422.93992643 297.20400394 422.94356336 300.48171425 422.96352005 C304.03387981 422.98383338 307.58466412 422.97351389 311.1368103 422.95530701 C312.17464672 422.96850697 313.21248315 422.98170694 314.28176916 422.99530691 C315.2338745 422.98411827 316.18597985 422.97292963 317.16693687 422.96140194 C318.39650016 422.96262362 318.39650016 422.96262362 319.65090311 422.96386999 C323.24476653 422.01276925 324.75075566 420.24026956 327.00610352 417.34057617 C327.74863111 414.19639447 327.74863111 414.19639447 327.63251591 410.70820522 C327.63948351 410.05192215 327.64645112 409.39563907 327.65362987 408.71946862 C327.67089967 406.51644107 327.65249786 404.31516646 327.6342926 402.11216736 C327.63933689 400.51852178 327.64656481 398.92488187 327.65579075 397.33125502 C327.67475674 392.94907666 327.66245502 388.56745473 327.64506781 384.18529022 C327.63172005 379.46061914 327.64712152 374.73603089 327.65888977 370.0113678 C327.67728968 360.75489285 327.66873855 351.49862868 327.65080155 342.24216025 C327.63678905 334.72132147 327.63287983 327.20053999 327.63624382 319.67968941 C327.63672126 318.61023231 327.6371987 317.54077521 327.63769061 316.43891032 C327.63871692 314.2664989 327.63977228 312.0940875 327.64085638 309.92167611 C327.64942809 290.70311292 327.63273268 271.48465167 327.60302734 252.26611328 C327.57418479 233.60558796 327.56710771 214.94520947 327.58251953 196.28466797 C327.59926909 175.97652239 327.60332894 155.66844655 327.58580917 135.36029917 C327.58396473 133.19608185 327.58213 131.03186451 327.5803051 128.86764717 C327.57939301 127.80273839 327.57848092 126.73782962 327.57754119 125.64065088 C327.57192835 118.12585409 327.57524989 110.61109127 327.58185005 103.09629631 C327.58957026 93.94263166 327.58287797 84.78911171 327.55767501 75.63547628 C327.54514989 70.96258383 327.53906982 66.28991698 327.55021667 61.61701584 C327.56021981 57.34297724 327.55188393 53.06938964 327.52863549 48.79540617 C327.52345428 47.2457042 327.52507725 45.69596219 327.53403015 44.14627742 C327.54515854 42.04600757 327.5318682 39.94728058 327.51226139 37.84710598 C327.51106991 36.67875884 327.50987843 35.51041171 327.50865084 34.30666012 C326.89858807 30.70600937 325.88252888 29.52501402 323.00610352 27.34057617 C320.19044985 26.72682916 320.19044985 26.72682916 317.04418945 26.79467773 C315.24277496 26.76509979 315.24277496 26.76509979 313.40496826 26.73492432 C312.11318665 26.73369568 310.82140503 26.73246704 309.49047852 26.73120117 C308.15096031 26.71621591 306.81146056 26.69948802 305.47198486 26.68109131 C301.95388938 26.63744306 298.43604311 26.61742477 294.91772461 26.60235596 C291.32464026 26.58277539 287.731818 26.54102232 284.13891602 26.50073242 C277.09447777 26.42336576 270.05118702 26.38296536 263.00610352 26.34057617 C263.00610352 17.76057617 263.00610352 9.18057617 263.00610352 0.34057617 C272.10790174 0.24994511 281.20939669 0.1766708 290.31154537 0.13332748 C294.53876039 0.11251722 298.76564873 0.08432095 302.99267578 0.03881836 C307.07757813 -0.00487548 311.1621677 -0.0286102 315.24728584 -0.0389328 C316.80011475 -0.04628222 318.35292796 -0.06063337 319.90562248 -0.08234406 C329.56709114 -0.21197436 337.30335789 0.1940035 345.31079102 6.01635742 C352.20213271 13.19912401 354.12739141 20.32258589 354.13753128 30.22168255 C354.13958391 30.9048704 354.14163655 31.58805825 354.14375138 32.29194877 C354.14941518 34.58598263 354.1479649 36.87995635 354.14654541 39.17399597 C354.1491294 40.83347957 354.15214266 42.49296255 354.15554881 44.15244466 C354.16361807 48.71667914 354.16540834 53.2808979 354.16614628 57.84513867 C354.16799696 62.76621938 354.17554437 67.68729193 354.18228149 72.60836792 C354.19586476 83.37079562 354.20188951 94.13321959 354.20629215 104.89565444 C354.20905455 111.6154124 354.2132919 118.33516893 354.21779633 125.05492592 C354.22998892 143.65899535 354.2402883 162.26306362 354.24367142 180.86713696 C354.24389098 182.05789306 354.24411055 183.24864917 354.24433677 184.4754888 C354.24455505 185.66909775 354.24477332 186.86270669 354.24499822 188.09248561 C354.24544168 190.51120134 354.24588825 192.92991708 354.24633789 195.34863281 C354.24655932 196.54839995 354.24678075 197.74816709 354.24700889 198.98429082 C354.250957 218.42531292 354.26841148 237.86629755 354.29169741 257.30730518 C354.31541027 277.26579227 354.32787324 297.22426056 354.32903934 317.18276197 C354.32995613 328.38924374 354.33570949 339.59567668 354.35385895 350.802145 C354.36925902 360.34463271 354.37438093 369.88705648 354.36612085 379.42955425 C354.36221405 384.29759158 354.36314547 389.16550016 354.37717819 394.03352165 C354.38991509 398.49282312 354.38872141 402.95189906 354.37658748 407.4112002 C354.37463013 409.02158356 354.3777107 410.63198288 354.38643184 412.24234381 C354.49452833 433.55750482 354.49452833 433.55750482 347.63110352 440.77807617 C347.06649414 441.39553711 346.50188477 442.01299805 345.92016602 442.64916992 C344.00610352 444.34057617 344.00610352 444.34057617 339.00610352 447.34057617 C348.24610352 447.67057617 357.48610352 448.00057617 367.00610352 448.34057617 C366.00610352 452.34057617 366.00610352 452.34057617 363.06860352 454.77807617 C330.23419418 473.51603752 276.96448196 471.46443561 240.00610352 473.34057617 C238.83325475 473.40137061 238.83325475 473.40137061 237.63671207 473.46339321 C222.36812901 474.24072514 207.13662275 474.50350279 191.84985352 474.50854492 C189.48750795 474.51177539 187.12516257 474.51514063 184.76281738 474.51863098 C179.83821145 474.52456727 174.91362292 474.52647683 169.98901367 474.52587891 C165.02901531 474.52579805 160.06911012 474.53268444 155.10913086 474.54638672 C125.68075197 474.6264165 96.37176008 474.37699082 67.00610352 472.34057617 C66.20096502 472.28474995 65.39582653 472.22892372 64.5662899 472.17140579 C-27.64007382 465.72788122 -27.64007382 465.72788122 -42.99389648 451.34057617 C-42.99389648 450.35057617 -42.99389648 449.36057617 -42.99389648 448.34057617 C-34.41389648 448.01057617 -25.83389648 447.68057617 -16.99389648 447.34057617 C-19.63389648 445.36057617 -22.27389648 443.38057617 -24.99389648 441.34057617 C-26.83374023 439.11010742 -26.83374023 439.11010742 -27.93139648 437.15307617 C-28.31166992 436.49952148 -28.69194336 435.8459668 -29.08374023 435.17260742 C-31.06176184 431.19109612 -31.12181264 427.95201079 -31.12811756 423.55942249 C-31.13046979 422.86274777 -31.13282202 422.16607305 -31.13524553 421.44828698 C-31.14194209 419.0963533 -31.14147711 416.74447478 -31.1410675 414.39253235 C-31.14436572 412.69622612 -31.1480912 410.99992067 -31.15220898 409.30361623 C-31.16224189 404.62838959 -31.16594785 399.95317579 -31.16859829 395.27793992 C-31.17249751 390.2409772 -31.18207609 385.20402469 -31.19081116 380.16706848 C-31.21058615 367.99613366 -31.22064298 355.825198 -31.22953895 343.65425113 C-31.23392005 337.92565547 -31.23928731 332.19706073 -31.24452782 326.46846581 C-31.26154094 307.43040948 -31.27603583 288.39235373 -31.28327656 269.35429096 C-31.28518652 264.41230074 -31.28710684 259.47031052 -31.2890625 254.52832031 C-31.28954624 253.29998201 -31.29002998 252.07164372 -31.29052838 250.80608305 C-31.29883131 230.90121458 -31.32417229 210.99640616 -31.35664318 191.09156392 C-31.38969353 170.66532495 -31.40772348 150.23911651 -31.4109208 129.81285065 C-31.41308774 118.34034292 -31.42186341 106.86792276 -31.44738197 95.39544106 C-31.4690613 85.62629607 -31.47715302 75.85725992 -31.46741519 66.08809362 C-31.46286251 61.10281562 -31.46481299 56.11776231 -31.48417664 51.13251495 C-31.50175187 46.56832777 -31.50085653 42.00453011 -31.48527934 37.44033911 C-31.48289469 35.78955241 -31.48727116 34.13873914 -31.49910799 32.48799316 C-31.56292532 23.00011728 -31.54978965 15.64795687 -25.09936523 8.13354492 C-24.46643555 7.60374023 -23.83350586 7.07393555 -23.18139648 6.52807617 C-22.24360352 5.7140332 -22.24360352 5.7140332 -21.28686523 4.88354492 C-14.23567977 0.13870973 -8.32285351 -0.08046522 0 0 Z " fill="#1158BF" transform="translate(93.993896484375,37.659423828125)"/>
<path d="M0 0 C1.78302269 0.00636726 1.78302269 0.00636726 3.60206604 0.01286316 C7.38208082 0.02959624 11.1615538 0.06723985 14.94140625 0.10546875 C17.51105998 0.12052247 20.08072211 0.13420967 22.65039062 0.14648438 C28.9350793 0.17948227 35.21945406 0.22962871 41.50390625 0.29296875 C38.50390625 2.29296875 38.50390625 2.29296875 35.19140625 3.60546875 C28.01764669 6.66264055 24.37180269 11.26294567 21.50390625 18.29296875 C20.35775406 21.73142532 20.3737512 24.37766266 20.36689186 28.00606632 C20.36424003 28.69538835 20.36158821 29.38471039 20.35885602 30.09492096 C20.35115144 32.42186051 20.35060341 34.74874739 20.3500061 37.07569885 C20.34599223 38.75408068 20.34155414 40.43246153 20.33672655 42.11084121 C20.32474661 46.73659845 20.3191093 51.36234524 20.31454539 55.98811495 C20.30859463 60.9719471 20.29698343 65.95576674 20.28625488 70.93959045 C20.26171812 82.98298284 20.2471015 95.02637938 20.23419482 107.06978908 C20.2304837 110.47067576 20.2265104 113.87156203 20.22244215 117.2724483 C20.19720557 138.3853027 20.17514945 159.49815774 20.162714 180.6110239 C20.15978424 185.50280828 20.15682259 190.39459263 20.15380859 195.28637695 C20.15306254 196.50222817 20.15231649 197.71807939 20.15154783 198.97077458 C20.1388939 218.66737847 20.10567115 238.36389209 20.06400676 258.06045378 C20.02159359 278.2765195 19.99801964 298.492539 19.99279344 318.7086491 C19.98937854 330.06163681 19.97761405 341.41448349 19.9446907 352.76742744 C19.91669751 362.43625228 19.90568768 372.10490717 19.91688617 381.77376939 C19.92207472 386.706689 19.91917309 391.6392527 19.89442062 396.57212067 C19.8719357 401.09084055 19.87266212 405.60894867 19.8916245 410.12767922 C19.89442557 411.75966278 19.88881994 413.39168775 19.87381156 415.0236047 C19.78862234 424.89245364 20.17382682 433.63077069 27.31793749 441.22003275 C32.11316899 445.69377653 36.66201559 447.53961841 43.25726032 447.55468178 C44.41325271 447.56214727 45.5692451 447.56961276 46.76026756 447.57730448 C48.65860423 447.57440238 48.65860423 447.57440238 50.59529114 447.57144165 C51.95666911 447.57644521 53.31804411 447.58232119 54.67941493 447.58899438 C58.41925119 447.60480113 62.15901234 447.60822543 65.89887798 447.60964298 C69.93225106 447.61333585 73.96558288 447.62849077 77.99893188 447.64225769 C84.98662192 447.66453789 91.97429728 447.67954661 98.96201515 447.68962479 C109.06509274 447.70420666 119.16811925 447.72974211 129.27116688 447.75795607 C145.66245386 447.803433 162.05374818 447.84004409 178.44506836 447.87109375 C194.36825858 447.9012756 210.2914308 447.93562419 226.21459961 447.97558594 C227.19600754 447.97804749 228.17741546 447.98050903 229.18856303 447.98304518 C234.11196947 447.99541971 239.0353757 448.00787625 243.95878184 448.02037358 C284.80713162 448.12395487 325.65550356 448.21315368 366.50390625 448.29296875 C365.89745864 451.83432333 365.55126134 452.2536741 362.56640625 454.73046875 C329.73199692 473.4684301 276.4622847 471.41682818 239.50390625 473.29296875 C238.33105749 473.35376318 238.33105749 473.35376318 237.13451481 473.41578579 C221.86593174 474.19311772 206.63442549 474.45589537 191.34765625 474.4609375 C188.98531069 474.46416796 186.62296531 474.46753321 184.26062012 474.47102356 C179.33601419 474.47695985 174.41142565 474.47886941 169.48681641 474.47827148 C164.52681805 474.47819063 159.56691285 474.48507702 154.60693359 474.4987793 C125.1785547 474.57880907 95.86956281 474.3293834 66.50390625 472.29296875 C65.69876776 472.23714252 64.89362926 472.1813163 64.06409264 472.12379837 C-28.14227109 465.6802738 -28.14227109 465.6802738 -43.49609375 451.29296875 C-43.49609375 450.30296875 -43.49609375 449.31296875 -43.49609375 448.29296875 C-34.91609375 447.96296875 -26.33609375 447.63296875 -17.49609375 447.29296875 C-20.13609375 445.31296875 -22.77609375 443.33296875 -25.49609375 441.29296875 C-27.3359375 439.0625 -27.3359375 439.0625 -28.43359375 437.10546875 C-28.81386719 436.45191406 -29.19414063 435.79835938 -29.5859375 435.125 C-31.56395911 431.14348869 -31.6240099 427.90440337 -31.63031483 423.51181507 C-31.63266706 422.81514035 -31.63501929 422.11846563 -31.6374428 421.40067956 C-31.64413935 419.04874587 -31.64367438 416.69686735 -31.64326477 414.34492493 C-31.64656299 412.64861869 -31.65028846 410.95231325 -31.65440625 409.2560088 C-31.66443916 404.58078217 -31.66814512 399.90556837 -31.67079556 395.23033249 C-31.67469478 390.19336978 -31.68427336 385.15641727 -31.69300842 380.11946106 C-31.71278342 367.94852624 -31.72284025 355.77759058 -31.73173621 343.60664371 C-31.73611732 337.87804804 -31.74148458 332.14945331 -31.74672508 326.42085838 C-31.76373821 307.38280205 -31.77823309 288.34474631 -31.78547382 269.30668354 C-31.78738378 264.36469332 -31.78930411 259.4227031 -31.79125977 254.48071289 C-31.79174351 253.25237459 -31.79222725 252.02403629 -31.79272565 250.75847562 C-31.80102857 230.85360716 -31.82636956 210.94879873 -31.85884044 191.0439565 C-31.8918908 170.61771752 -31.90992074 150.19150909 -31.91311806 129.76524323 C-31.91528501 118.2927355 -31.92406068 106.82031534 -31.94957924 95.34783363 C-31.97125856 85.57868865 -31.97935028 75.8096525 -31.96961246 66.04048619 C-31.96505977 61.0552082 -31.96701025 56.07015489 -31.9863739 51.08490753 C-32.00394913 46.52072034 -32.0030538 41.95692269 -31.98747661 37.39273169 C-31.98509195 35.74194499 -31.98946842 34.09113172 -32.00130526 32.44038574 C-32.06512259 22.95250986 -32.05198691 15.60034944 -25.6015625 8.0859375 C-24.96863281 7.55613281 -24.33570312 7.02632812 -23.68359375 6.48046875 C-22.74580078 5.66642578 -22.74580078 5.66642578 -21.7890625 4.8359375 C-14.58419443 -0.01231273 -8.50786788 -0.11504652 0 0 Z " fill="#B8D2F0" transform="translate(94.49609375,37.70703125)"/>
<path d="M0 0 C1.10357849 -0.0099852 2.20715698 -0.0199704 3.34417725 -0.03025818 C5.67749285 -0.04543031 8.0108734 -0.05248425 10.34423828 -0.05200195 C13.89596278 -0.05854601 17.44486576 -0.11299379 20.99609375 -0.16992188 C23.26821966 -0.17872802 25.54035878 -0.1846795 27.8125 -0.1875 C28.8659259 -0.20905655 29.91935181 -0.2306131 31.00469971 -0.25282288 C38.33775803 -0.18542534 43.20960361 1.5077086 48.671875 6.50390625 C52.10942321 10.98027887 52.85823014 14.65479607 52.76171875 20.2734375 C52.74226196 21.74647339 52.74226196 21.74647339 52.72241211 23.24926758 C52.70573486 23.99329834 52.68905762 24.7373291 52.671875 25.50390625 C53.97334473 25.48295898 55.27481445 25.46201172 56.61572266 25.44042969 C61.45740703 25.36787432 66.2990436 25.32204978 71.14111328 25.28417969 C73.23429453 25.26409966 75.32741992 25.23682985 77.42041016 25.20214844 C80.43405969 25.15347191 83.44696573 25.13090113 86.4609375 25.11328125 C87.39241608 25.09263611 88.32389465 25.07199097 89.28359985 25.05072021 C95.05958807 25.04873822 98.26000715 25.68117604 102.671875 29.50390625 C104.32742665 32.81500954 103.81315534 36.50913942 103.8046875 40.1484375 C103.80623337 41.02209961 103.80777924 41.89576172 103.80937195 42.79589844 C103.81184069 45.63611699 103.80561171 48.47620104 103.796875 51.31640625 C103.79305313 52.75226578 103.79305313 52.75226578 103.78915405 54.21713257 C103.77145395 59.83647004 103.73822423 65.45553822 103.69146729 71.07470703 C103.67428797 73.20472839 103.66171849 75.33478589 103.64990234 77.46484375 C103.62428718 80.41709972 103.56594291 83.36525702 103.484375 86.31640625 C103.47873535 87.11216064 103.4730957 87.90791504 103.46728516 88.7277832 C103.30865478 92.6238679 102.77836852 94.37100938 100.30859375 97.453125 C96.50072867 100.41479784 93.79392794 100.6284461 89.11006165 100.62416077 C87.374767 100.62622276 87.374767 100.62622276 85.60441589 100.62832642 C84.33415054 100.62473114 83.06388519 100.62113586 81.75512695 100.61743164 C80.40494794 100.61714959 79.05476877 100.61730785 77.70458984 100.61787415 C74.03751567 100.61816142 70.37047411 100.61227596 66.70340753 100.60530019 C62.87170594 100.59905503 59.04000362 100.59846193 55.20829773 100.59727478 C47.95165872 100.5941649 40.69503474 100.58595612 33.43840235 100.57592529 C25.17730703 100.56475352 16.916211 100.55925102 8.65511 100.55422986 C-8.33931037 100.54377323 -25.3337161 100.52618041 -42.328125 100.50390625 C-42.328125 100.17390625 -42.328125 99.84390625 -42.328125 99.50390625 C-37.873125 99.00890625 -37.873125 99.00890625 -33.328125 98.50390625 C-33.97628174 97.79903076 -34.62443848 97.09415527 -35.29223633 96.36791992 C-38.74890055 91.13744492 -37.91123825 84.71023152 -37.90234375 78.6796875 C-37.91480095 77.32779642 -37.92913851 75.97592148 -37.94526672 74.62406921 C-37.98317578 71.07917916 -37.99846025 67.53456804 -38.00805664 63.98950195 C-38.02785253 58.30552597 -38.08467864 52.62176114 -38.13681984 46.93800926 C-38.15214438 44.9554801 -38.15861197 42.97288889 -38.16496277 40.99031067 C-38.17199722 39.78863754 -38.17903168 38.58696442 -38.1862793 37.34887695 C-38.18975876 36.28997757 -38.19323822 35.23107819 -38.19682312 34.14009094 C-38.21523201 31.3948466 -38.21523201 31.3948466 -39.328125 28.50390625 C-41.83260016 27.28520696 -41.83260016 27.28520696 -44.328125 26.50390625 C-44.328125 26.17390625 -44.328125 25.84390625 -44.328125 25.50390625 C-37.728125 25.50390625 -31.128125 25.50390625 -24.328125 25.50390625 C-24.328125 22.20390625 -24.328125 18.90390625 -24.328125 15.50390625 C-22.39816291 9.30771218 -19.29768377 5.94678716 -14.37207031 1.89477539 C-9.68106782 -0.24868316 -5.10083519 0.01604204 0 0 Z " fill="#78AFE6" transform="translate(253.328125,-0.50390625)"/>
<path d="M0 0 C135.3 0 270.6 0 410 0 C409 4 409 4 406.0625 6.4375 C373.22809067 25.17546135 319.95837845 23.12385943 283 25 C282.21810082 25.04052962 281.43620165 25.08105925 280.63060856 25.12281704 C265.36202549 25.90014897 250.13051924 26.16292662 234.84375 26.16796875 C232.48140444 26.17119921 230.11905906 26.17456446 227.75671387 26.17805481 C222.83210794 26.1839911 217.9075194 26.18590066 212.98291016 26.18530273 C208.0229118 26.18522188 203.0630066 26.19210827 198.10302734 26.20581055 C168.67464845 26.28584032 139.36565656 26.03641465 110 24 C109.19486151 23.94417377 108.38972301 23.88834755 107.56018639 23.83082962 C15.35382266 17.38730505 15.35382266 17.38730505 0 3 C0 2.01 0 1.02 0 0 Z " fill="#EAF0FA" transform="translate(51,486)"/>
<path d="M0 0 C1.01219101 -0.0071553 2.02438202 -0.01431061 3.06724548 -0.02168274 C4.18206802 -0.02437164 5.29689056 -0.02706055 6.44549561 -0.02983093 C7.61633194 -0.03640213 8.78716827 -0.04297333 9.9934845 -0.04974365 C13.88210393 -0.0695126 17.77070989 -0.08114773 21.65936279 -0.09111023 C22.99837006 -0.09515784 24.33737713 -0.09927477 25.67638397 -0.10346031 C31.96828719 -0.12251455 38.26017866 -0.13674406 44.55210519 -0.14507228 C51.81206785 -0.15484063 59.07172528 -0.18114824 66.3315804 -0.22157317 C71.94440952 -0.25175281 77.55715125 -0.26654296 83.17005992 -0.26985329 C86.52160475 -0.27220209 89.87282361 -0.28113914 93.22428131 -0.30631447 C96.9662365 -0.33060588 100.70739231 -0.32975857 104.44940186 -0.32279968 C105.55612747 -0.33560974 106.66285309 -0.3484198 107.80311584 -0.36161804 C113.9372822 -0.32000029 117.55019377 0.02836059 122.20623779 4.14717102 C124.62601704 6.81513275 126.07968708 8.714617 126.40155029 12.35810852 C126.16271924 16.58682305 125.5585573 18.69963003 122.89373779 22.08467102 C118.86944733 25.17307998 116.23289487 26.39535529 111.13400269 26.41459656 C110.11064819 26.42312653 109.0872937 26.43165649 108.03292847 26.44044495 C106.91594574 26.43953857 105.79896301 26.4386322 104.64813232 26.43769836 C103.46725037 26.44441559 102.28636841 26.45113281 101.06970215 26.45805359 C97.83406203 26.4737956 94.59857599 26.48040857 91.36290216 26.48168516 C89.33997533 26.48310787 87.31707529 26.48737973 85.29415512 26.4926796 C78.2327682 26.511177 71.17145673 26.5193506 64.11004639 26.51777649 C57.53434619 26.51657523 50.9589743 26.53767493 44.38335717 26.56926382 C38.73225843 26.59544109 33.08126683 26.60614318 27.43010795 26.60486567 C24.0573744 26.60435644 20.68493267 26.61001716 17.31225967 26.63122177 C13.5489395 26.6508003 9.78646591 26.64507468 6.02313232 26.63301086 C4.35373093 26.64986938 4.35373093 26.64986938 2.65060425 26.66706848 C-3.47226699 26.61715116 -7.16534645 26.29976778 -11.79376221 22.14717102 C-14.84270423 17.91799337 -15.31899202 14.37057391 -14.57891846 9.33467102 C-12.34420655 3.10860799 -6.22171149 0.03012303 0 0 Z " fill="#0A68C5" transform="translate(269.79376220703125,165.8528289794922)"/>
<path d="M0 0 C1.75713066 -0.01029488 1.75713066 -0.01029488 3.54975891 -0.02079773 C7.4167599 -0.03907925 11.28335575 -0.03522644 15.15039062 -0.02954102 C17.16031068 -0.03201741 19.17022079 -0.03636447 21.18013716 -0.04089409 C27.49562432 -0.05492259 33.81097615 -0.05339157 40.12646484 -0.04199219 C46.63292454 -0.03050735 53.13897221 -0.04459617 59.64537764 -0.07138866 C65.24132924 -0.09356572 70.83715168 -0.10017872 76.43314409 -0.09431225 C79.77123641 -0.09094677 83.10885347 -0.09504416 86.44694519 -0.11056328 C90.16936966 -0.12543217 93.89088532 -0.11482519 97.61328125 -0.09765625 C98.71372269 -0.10732422 99.81416412 -0.11699219 100.94795227 -0.12695312 C107.05543769 -0.06793528 110.67782257 0.29079106 115.30664062 4.40405273 C117.8274118 7.45551258 119.15494428 9.49387468 119.80664062 13.40405273 C118.97943629 18.36727875 116.59471239 21.26044362 112.88804626 24.5513916 C108.23838175 27.51772482 102.96260778 26.96092994 97.62915039 26.92163086 C96.45933624 26.92864014 95.28952209 26.93564941 94.08425903 26.94287109 C90.22194598 26.96045862 86.36036724 26.94882391 82.49804688 26.93530273 C79.81053578 26.93619388 77.1230377 26.94187408 74.43553162 26.94689941 C68.80418974 26.95416797 63.17305799 26.94461019 57.54174805 26.92553711 C51.04324471 26.90378019 44.54524364 26.91081388 38.04675251 26.93284273 C32.45586669 26.95103218 26.86513153 26.95353753 21.27422565 26.94308805 C17.94003642 26.936871 14.60627143 26.93755142 11.27206612 26.94923401 C7.55220866 26.95940671 3.83331145 26.94388569 0.11352539 26.92163086 C-1.53174385 26.93377625 -1.53174385 26.93377625 -3.21025085 26.94616699 C-9.57809163 26.8756859 -13.53380528 26.23982435 -18.69335938 22.40405273 C-21.66752267 18.08671892 -22.34201428 14.59329197 -21.69335938 9.40405273 C-16.94522923 -0.09220756 -9.52639119 -0.03897023 0 0 Z " fill="#0865C4" transform="translate(276.693359375,242.595947265625)"/>
<path d="M0 0 C1.54765297 -0.01268921 1.54765297 -0.01268921 3.12657166 -0.02563477 C4.81607185 -0.01652573 4.81607185 -0.01652573 6.53970337 -0.00723267 C7.7303389 -0.01248962 8.92097443 -0.01774658 10.14768982 -0.02316284 C13.410272 -0.03410419 16.67248905 -0.03153889 19.93506575 -0.02202559 C23.35289743 -0.0144234 26.77070494 -0.02147647 30.1885376 -0.02618408 C35.93014902 -0.0316415 41.67164468 -0.024452 47.41323853 -0.01016235 C54.04342776 0.00614869 60.67334 0.00088702 67.30352247 -0.01564157 C73.00133833 -0.02927547 78.699071 -0.03116636 84.39689791 -0.02332556 C87.79750582 -0.01865747 91.19798376 -0.01799996 94.59858322 -0.02793503 C98.39294892 -0.03555457 102.18678346 -0.02393641 105.98110962 -0.00723267 C107.10339462 -0.01330536 108.22567963 -0.01937805 109.38197327 -0.02563477 C114.93905674 0.01968008 119.14856301 0.13167511 123.88980103 3.38095093 C126.67925501 6.61084502 127.78499128 8.64728272 128.38980103 12.88095093 C127.78928512 17.08456226 126.61265934 19.14295725 123.88980103 22.38095093 C120.35931141 24.89277287 117.93724921 25.75751939 113.62138367 25.77536011 C112.05904747 25.7923848 112.05904747 25.7923848 110.46514893 25.80975342 C108.76701553 25.80535751 108.76701553 25.80535751 107.03457642 25.8008728 C105.83404129 25.80934235 104.63350616 25.81781189 103.39659119 25.82653809 C100.11136449 25.84590735 96.82648679 25.85168668 93.54121327 25.84979057 C90.79521767 25.84967071 88.04927497 25.85824113 85.30329412 25.86656809 C78.82338603 25.88578879 72.34360676 25.88869076 65.86367798 25.88192749 C59.18619393 25.87528613 52.5092622 25.8981572 45.83189017 25.93524122 C40.09158338 25.96596038 34.35145407 25.97729593 28.61106676 25.97340441 C25.18575833 25.97133929 21.76087984 25.97677858 18.33564949 26.001297 C14.51479301 26.02341286 10.69527179 26.01381998 6.87442017 25.9961853 C5.74435547 26.00944855 4.61429077 26.02271179 3.44998169 26.03637695 C-5.09993262 25.94461482 -5.09993262 25.94461482 -8.77330017 22.95968628 C-11.986005 19.41451115 -12.9552884 17.77514612 -13.48519897 13.00595093 C-12.96752914 8.00180917 -10.98874681 5.08087743 -7.28896141 1.73288536 C-4.64703822 0.09355706 -3.0934831 0.003907 0 0 Z " fill="#0459BF" transform="translate(268.1101989746094,332.6190490722656)"/>
<path d="M0 0 C2.87029869 1.79393668 4.49131638 2.98263276 6 6 C6.60584863 11.01988864 6.56976441 13.77058879 3.42431641 17.80517578 C0.13905052 21.97472685 -3.46445353 25.75408017 -7.2265625 29.4921875 C-7.89666351 30.16420197 -8.56676453 30.83621643 -9.25717163 31.52859497 C-10.66150628 32.93428016 -12.06832772 34.33748504 -13.47753906 35.73828125 C-15.63322918 37.88318802 -17.77794592 40.0386569 -19.921875 42.1953125 C-21.29362945 43.56574647 -22.66600356 44.93556052 -24.0390625 46.3046875 C-24.99699203 47.26868973 -24.99699203 47.26868973 -25.97427368 48.25216675 C-26.57524872 48.84683746 -27.17622375 49.44150818 -27.79541016 50.05419922 C-28.31914215 50.57634003 -28.84287415 51.09848083 -29.38247681 51.63644409 C-32.8809037 54.58558305 -36.25455159 55.63402741 -40.87939453 55.50146484 C-43.51254362 54.87879754 -44.69441122 53.86665202 -46.6796875 52.0390625 C-47.37255859 51.40395752 -48.06542969 50.76885254 -48.77929688 50.11450195 C-52.68988699 46.39092884 -56.55515908 42.62919443 -60.375 38.8125 C-61.18066406 38.01908203 -61.98632812 37.22566406 -62.81640625 36.40820312 C-63.58597656 35.64056641 -64.35554687 34.87292969 -65.1484375 34.08203125 C-65.84114746 33.39343018 -66.53385742 32.7048291 -67.24755859 31.99536133 C-70.08458444 28.76507263 -71.01639467 26.90170685 -70.9375 22.5625 C-69.83343994 18.36707178 -68.26274431 16.77333266 -65 14 C-64.67 13.67 -64.34 13.34 -64 13 C-58.84750309 12.60365408 -56.19579967 13.0487694 -52 16 C-49.8050639 17.97677958 -47.74296098 20.06710344 -45.6875 22.1875 C-45.13771484 22.74630859 -44.58792969 23.30511719 -44.02148438 23.88085938 C-42.67636304 25.24937412 -41.33753357 26.62406833 -40 28 C-35.91709903 26.38448553 -33.21566164 23.45360304 -30.2109375 20.37109375 C-29.66643951 19.8213942 -29.12194153 19.27169464 -28.5609436 18.70533752 C-26.82746221 16.95408824 -25.10083449 15.19628312 -23.375 13.4375 C-21.64115848 11.67604189 -19.90587817 9.91606377 -18.16763306 8.15895081 C-17.08752633 7.06658495 -16.01010397 5.97155704 -14.93563843 4.87364197 C-10.10539101 -0.02132076 -6.79555256 -0.88025292 0 0 Z " fill="#41B644" transform="translate(236,146)"/>
<path d="M0 0 C3.6578218 2.03993908 5.66946174 3.50419262 8 7 C9.0005426 13.55911259 9.0005426 13.55911259 6.68147278 16.89881897 C6.10700912 17.52139084 5.53254547 18.14396271 4.94067383 18.78540039 C3.9851915 19.82713913 3.9851915 19.82713913 3.01040649 20.8899231 C-0.15858128 24.21602054 -3.35974713 27.50257534 -6.61328125 30.74609375 C-7.30890671 31.44267593 -8.00453217 32.13925812 -8.72123718 32.85694885 C-10.17629346 34.31267999 -11.63259063 35.7671718 -13.09008789 37.22045898 C-15.32750895 39.45247268 -17.55947677 41.68984135 -19.79101562 43.92773438 C-21.21061654 45.34667534 -22.63052717 46.76530654 -24.05078125 48.18359375 C-24.71846024 48.85329697 -25.38613922 49.52300018 -26.0740509 50.21299744 C-26.69197006 50.82776443 -27.30988922 51.44253143 -27.9465332 52.07592773 C-28.48945511 52.61805405 -29.03237701 53.16018036 -29.5917511 53.71873474 C-32.35754685 56.23513508 -35.11636824 56.52344586 -38.80859375 56.46606445 C-41.51738768 55.88996289 -42.66089137 54.91548413 -44.6875 53.04296875 C-45.37924316 52.4072998 -46.07098633 51.77163086 -46.78369141 51.11669922 C-50.68816591 47.38770672 -54.55561034 43.62874354 -58.375 39.8125 C-59.18066406 39.01908203 -59.98632812 38.22566406 -60.81640625 37.40820312 C-61.58597656 36.64056641 -62.35554687 35.87292969 -63.1484375 35.08203125 C-63.84114746 34.39343018 -64.53385742 33.7048291 -65.24755859 32.99536133 C-67.76360658 30.1305438 -68.86465369 27.88941859 -69.4375 24.125 C-68.82244681 19.7317629 -67.08098355 18.15434031 -64 15 C-60.35541166 13.17770583 -56.94700744 13.06109066 -53 14 C-48.6110913 17.04496772 -44.99857027 20.82107095 -41.3984375 24.74609375 C-40.03912099 26.2650159 -40.03912099 26.2650159 -38 28 C-33.45077641 27.47113103 -31.0297687 24.39197882 -27.9921875 21.25 C-27.42549347 20.67668945 -26.85879944 20.10337891 -26.27493286 19.51269531 C-24.46771716 17.68209259 -22.67097255 15.8416288 -20.875 14 C-19.07019045 12.16014095 -17.26326511 10.32243121 -15.4536438 8.48730469 C-14.32859706 7.34526619 -13.20664951 6.20016479 -12.08810425 5.05175781 C-7.94342748 0.82738046 -6.01137144 -0.57801648 0 0 Z " fill="#209B69" transform="translate(234,315)"/>
<path d="M0 0 C2.87029869 1.79393668 4.49131638 2.98263276 6 6 C6.91574158 12.63912648 6.91574158 12.63912648 4.77148438 15.82568359 C3.94100586 16.72794678 3.94100586 16.72794678 3.09375 17.6484375 C2.45759766 18.34114746 1.82144531 19.03385742 1.16601562 19.74755859 C-3.67379826 24.78048499 -8.64324359 29.67841906 -13.6171875 34.578125 C-18.09419065 39.01430442 -22.42541071 43.48462516 -26.48461914 48.30859375 C-29.98308974 52.2134438 -33.59036038 55.20693113 -38.9375 55.75 C-42.42432963 55.43060588 -44.10339256 54.37067831 -46.66796875 52.02734375 C-47.36253174 51.39393066 -48.05709473 50.76051758 -48.77270508 50.10791016 C-52.69484436 46.39600063 -56.55498623 42.62936713 -60.375 38.8125 C-61.18066406 38.01908203 -61.98632812 37.22566406 -62.81640625 36.40820312 C-63.58597656 35.64056641 -64.35554687 34.87292969 -65.1484375 34.08203125 C-65.84114746 33.39343018 -66.53385742 32.7048291 -67.24755859 31.99536133 C-70.09788973 28.74992299 -71.0336239 26.92465738 -70.875 22.5625 C-69.92645533 18.70056814 -68.74586726 16.82907536 -66 14 C-62.69156015 12.34578007 -59.54882274 12.24759942 -56 13 C-52.93280447 14.94216242 -50.52215809 17.40508735 -48 20 C-47.2471875 20.74121094 -46.494375 21.48242188 -45.71875 22.24609375 C-43.79412336 24.1470014 -41.89000072 26.06475991 -40 28 C-35.91709903 26.38448553 -33.21566164 23.45360304 -30.2109375 20.37109375 C-29.66643951 19.8213942 -29.12194153 19.27169464 -28.5609436 18.70533752 C-26.82746221 16.95408824 -25.10083449 15.19628312 -23.375 13.4375 C-21.64115848 11.67604189 -19.90587817 9.91606377 -18.16763306 8.15895081 C-17.08752633 7.06658495 -16.01010397 5.97155704 -14.93563843 4.87364197 C-10.10539101 -0.02132076 -6.79555256 -0.88025292 0 0 Z " fill="#39AF4D" transform="translate(236,231)"/>
<path d="M0 0 C0.8065654 -0.00570007 1.6131308 -0.01140015 2.44413757 -0.01727295 C4.15309333 -0.02672695 5.86206735 -0.03325852 7.57104492 -0.03710938 C10.17854916 -0.0467982 12.78525953 -0.07781 15.39257812 -0.109375 C17.05338074 -0.11590685 18.71418899 -0.12115661 20.375 -0.125 C21.1522493 -0.1373468 21.9294986 -0.1496936 22.7303009 -0.16241455 C27.30434689 -0.14371103 30.27591911 0.32728925 33.88671875 3.203125 C36.19042436 6.65868342 36.13723568 7.96070649 36.14208984 12.03222656 C36.14904877 13.230672 36.15600769 14.42911743 36.16317749 15.66387939 C36.16218048 16.96073669 36.16118347 18.25759399 36.16015625 19.59375 C36.16871788 20.94033772 36.17871852 22.286917 36.19009399 23.63348389 C36.23630104 29.34822415 36.26095035 35.06291138 36.26757812 40.77783203 C36.27261336 44.27636731 36.29696768 47.77434987 36.33290482 51.27269745 C36.34738223 53.24393997 36.34008447 55.2153039 36.33236694 57.18658447 C36.40758038 64.05425099 36.72136748 68.63208404 40.88671875 74.203125 C30.92020798 74.98857681 30.92020798 74.98857681 26.76171875 71.828125 C24.14966253 68.17124629 23.76286102 66.46194944 23.77319336 62.01904297 C23.77326889 60.93807343 23.77334442 59.85710388 23.77342224 58.74337769 C23.77858353 57.57251617 23.78374481 56.40165466 23.7890625 55.1953125 C23.79047745 53.99955597 23.7918924 52.80379944 23.79335022 51.57180786 C23.79896212 47.74055513 23.81151667 43.90936016 23.82421875 40.078125 C23.82923222 37.48567793 23.83379539 34.89322994 23.83789062 32.30078125 C23.84808589 25.9348555 23.86765908 19.56905515 23.88671875 13.203125 C11.01671875 13.203125 -1.85328125 13.203125 -15.11328125 13.203125 C-15.11328125 6.13577486 -14.65475261 5.85272663 -10.11328125 1.203125 C-6.93315062 -0.38694031 -3.49357468 0.01895423 0 0 Z " fill="#BED6F2" transform="translate(180.11328125,24.796875)"/>
<path d="M0 0 C0.85574112 0.00565979 1.71148224 0.01131958 2.59315491 0.01715088 C5.30357836 0.03938993 8.01263816 0.08956075 10.72265625 0.140625 C12.56964225 0.16070622 14.41664915 0.17895414 16.26367188 0.1953125 C20.77135195 0.23921353 25.27802358 0.30815231 29.78515625 0.390625 C28.62886719 1.30908203 28.62886719 1.30908203 27.44921875 2.24609375 C20.2428194 8.04713956 17.17852098 13.2176405 15.78515625 22.390625 C11.70196407 22.4791335 7.61902462 22.53151563 3.53515625 22.578125 C2.395625 22.60326172 1.25609375 22.62839844 0.08203125 22.65429688 C-7.78619526 22.72135562 -14.68600426 21.6745103 -22.21484375 19.390625 C-21.89014784 13.22140265 -20.82616712 8.73312683 -16.21484375 4.390625 C-10.62118604 0.55795862 -6.70159405 -0.1693563 0 0 Z " fill="#C5DBF4" transform="translate(251.21484375,-0.390625)"/>
<path d="M0 0 C6.52083748 0.89501691 6.52083748 0.89501691 9.35229492 1.51538086 C12.31771889 2.05815325 15.16305222 2.21251904 18.17578125 2.31640625 C19.33271484 2.35830078 20.48964844 2.40019531 21.68164062 2.44335938 C22.87982422 2.48267578 24.07800781 2.52199219 25.3125 2.5625 C26.53001953 2.60568359 27.74753906 2.64886719 29.00195312 2.69335938 C32.0011947 2.79921496 35.00051591 2.90129726 38 3 C38 3.99 38 4.98 38 6 C25.46 6 12.92 6 0 6 C0 4.02 0 2.04 0 0 Z " fill="#99BCE8" transform="translate(229,19)"/>
</svg>
